<svg width="32" height="32" viewBox="0 0 32 32" fill="none" xmlns="http://www.w3.org/2000/svg"><rect width="32" height="32" rx="6" fill="#0c68e9"></rect><path d="M8 12C8 10.3431 9.34315 9 11 9H15C16.6569 9 18 10.3431 18 12V15C18 16.6569 16.6569 18 15 18H11C9.34315 18 8 16.6569 8 15V12Z" fill="white" fill-opacity="0.9"></path><path d="M14 17C14 15.3431 15.3431 14 17 14H21C22.6569 14 24 15.3431 24 17V21C24 22.6569 22.6569 24 21 24H17C15.3431 24 14 22.6569 14 21V17Z" fill="white" fill-opacity="0.6"></path><circle cx="22" cy="10" r="2.5" fill="white" fill-opacity="0.8"></circle></svg>